# xmcd CD database file
#
# Track frame offsets:
#	182
#	10287
#	21532
#	29907
#	41797
#	53835
#	62430
#	74555
#	86185
#	97882
#	108735
#	120710
#	131857
#	143775
#	155770
#	167907
#	180382
#	190820
#	204610
#	217662
#	228342
#	239515
#	247330
#	258297
#
# Disc length: 3600 seconds
#
# Revision: 0
# Processed by: cddbd v1.5.1PL0 Copyright (c) Steve Scherf et al.
# Submitted via: CDex 1.51
#
DISCID=6d0e0e18
DTITLE=Powell, Keith - The Keith Powell Story
DYEAR=1994
DGENRE=New Age
TTITLE0=Come And Join The Party (& The Valets)
TTITLE1=The Answer Is No! (& The Valets)
TTITLE2=Tore Up (& The Valets)
TTITLE3=You Better Let Him Go (& The Valets)
TTITLE4=I Should Know Better (& The Valets)
TTITLE5=Too Much Monkey Business (& The Valets)
TTITLE6=Walking And Crying (& The Valets)
TTITLE7=New Orleans (& The Valets)
TTITLE8=People Get Ready
TTITLE9=Paradise
TTITLE10=Beyond The Hill
TTITLE11=Come Home Baby
TTITLE12=Goodbye Girl
TTITLE13=It Was Easier To Hurt Her
TTITLE14=When You Move You Lose (& Billie Davis)
TTITLE15=Tastes Sour Don't It (& Billie Davis)
TTITLE16=Victory
TTITLE17=Some People Only
TTITLE18=Two Little People (& Billie Davis)
TTITLE19=You Don't Know Like I Know (& Billie Davis)
TTITLE20=Swinging Tight (& Billie Davis)
TTITLE21=That's Really Some Good (& Billie Davis)
TTITLE22=Song Of The Moon
TTITLE23=It Keeps Raining
EXTD=YEAR: 1994
EXTT0=
EXTT1=
EXTT2=
EXTT3=
EXTT4=
EXTT5=
EXTT6=
EXTT7=
EXTT8=
EXTT9=
EXTT10=
EXTT11=
EXTT12=
EXTT13=
EXTT14=
EXTT15=
EXTT16=
EXTT17=
EXTT18=
EXTT19=
EXTT20=
EXTT21=
EXTT22=
EXTT23=
PLAYORDER=
